# xmcd
#
# Track frame offsets: 
#        150
#        29367
#        58060
#        87649
#        118993
#        149277
#        185229
#        218561
#        250931
#        279992
#        317743
#
# Disc length: 4776 seconds
#
# Revision: 1
# Processed by: cddbd v1.5.2PL0 Copyright (c) Steve Scherf et al.
# Submitted via: ExactAudioCopy v1.3
#
DISCID=ab12a60b
DTITLE=Various Artist - Akella Presents - vol.203 - Longtime The Rock
DTITLE=in' Blues  CD2
DYEAR=2019
DGENRE=Blues
TTITLE0=Victor Lawson and Boogie Chillen - Suitcase Full of Blues
TTITLE1=Big Time Sarah - Riverboat
TTITLE2=Michael van Merwyk - Easy My Pain
TTITLE3=Catfish - The Thrill is Gone
TTITLE4=Willie Cobbs - Butler Boy Blues
TTITLE5=Lavelle White - Mississippi, My Home
TTITLE6=Frank Christopher - I Found Trouble
TTITLE7=Toler Brothers - Goin' Down Slow
TTITLE8=Dave Plaehn - Cold Front
TTITLE9=The Ori Naftaly Band - Like a Snake
TTITLE10=Jimmy Barnes - Stolen Car (The Road's On Fire) (Pt1,2)
EXTD=
EXTT0=
EXTT1=
EXTT2=
EXTT3=
EXTT4=
EXTT5=
EXTT6=
EXTT7=
EXTT8=
EXTT9=
EXTT10=
PLAYORDER=
